<?xml version="1.0"?><svg version="1.2" baseProfile="tiny-ps" viewBox="0 0 300 300" xmlns="http://www.w3.org/2000/svg" xmlns:xlink="http://www.w3.org/1999/xlink"><title>logo_primary_2</title><g><g fill="#fff" transform="matrix(.1 0 0 -.1 0 300)"><path d="M0 1500V0h3000v3000H0V1500z"/></g><g fill="#c9c9c9" transform="matrix(.1 0 0 -.1 0 300)"><path d="M0 1500V0h3000v3000H0V1500zm1775 984c-11-8-86-62-166-120l-147-104h-287l180 120 180 120h130l130-1-20-15zm65-323v-339l-175-146c-96-80-177-146-180-146s-5 162-5 359v359l176 126c97 69 178 126 180 126s4-153 4-339zm-380-286v-365h-300v730h300v-365zm800-515v-20H740v40h1520v-20zm-1209-172 39-22 20-41c11-23 20-51 20-63v-22h-59l-11 40-11 41-32 19-32 20h-93l-31-26-31-25-11-42-11-42 4-86 4-85 20-35 20-34 42-13 42-14 42 14 41 13 19 26 19 26 6 41 6 42H930v50h200V720h-31l-4 15c-3 8-7 22-10 30l-4 15-24-24-24-24-39-11c-22-6-55-11-74-11h-36l-44 23-45 22-24 45-25 44-4 84-5 84 12 54 12 54 27 31c14 18 40 38 57 45l30 13 69 1h68l39-22zm479 9 34-12 23-34 23-34v-88l-15-30-16-30-32-19-32-20h-185V720h-70v490l118-1h117l35-12zm369-175c41-103 77-190 81-195l6-7 78 195 78 195h118V720h-70v414l-8-9c-5-6-44-99-86-208l-78-198-40 3-41 3-81 205-81 205-3-207-2-208h-60v490h115l74-188zm-172-504-5-13v50l5-12c2-7 2-19 0-25zm-320 0-5-13-1 19c-1 11 2 17 5 13 3-3 4-12 1-19zm373 1881v-10l-10 6-10 6v-9c0-5-11-15-25-22l-25-13v-118l10 6 10 6-5 10-6 9 15-6 16-6v25l7-6 6-7 19 17 18 16v107h-10c-5 0-10-5-10-11zm-23-81-5-13v50l5-12c2-7 2-19 0-25zm-80 11-18-10 2-59 2-58 18 11 19 12v57c0 32-1 58-2 58-2 0-11-5-21-11zm10-74v-14l-9 5-8 5 5 10c9 13 12 11 12-6zm-497-85v-20h230v40h-230v-20zm0-50v-20h230v40h-230v-20zm0-50v-20h230v40h-230v-20zm0-50v-20h230v40h-230v-20zm180-45-13-16 16-17 17-16 11 11 11 11-4 18c-4 24-22 28-38 9zm-166-6c-6-10 5-15 39-17l27-2v29l-30-1c-17-1-33-5-36-9zm-34-289v-20h270v40h-270v-20zm0-50v-20h270v40h-270v-20zm0-50v-20h270v40h-270v-20zm5-40 6-10h248l6 10 6 10h-272l6-10zm155-475v-85h161l24 25 25 24v78l-23 21-23 22h-164v-85z"/></g><g fill="#a3a3a3" transform="matrix(.1 0 0 -.1 0 300)"><path d="M0 1500V0h3000v3000H0V1500zm1785 991c-6-6-80-60-165-120l-155-111h-290l180 120 180 120h259l-9-9zm54-333v-343l-112-92c-62-51-142-117-180-148l-67-57 2 368 3 368 170 122c94 68 173 123 178 124h7l-1-342zm-379-283v-365h-300v730h300v-365zm800-515v-20l-762 2-763 3-3 18-3 17h1531v-20zm-1215-166 35-16 21-30 21-29 5-39 6-40h-73v20c0 10-5 30-11 44l-12 25-32 16-33 15h-34c-18 0-44-6-57-13l-25-12-20-35-21-35V855l19-32 19-31 24-11 24-11h95l22 16c28 19 38 39 47 91l7 42-74 3-73 3-3 23-3 22h211V861c0-60 3-116 6-125l6-16h-52v19c0 11-4 22-9 26l-10 5-7-11c-3-6-25-20-48-30l-41-19h-96l-32 14-33 13-27 32-26 32-11 37-10 37v170l10 37c26 91 107 142 212 133l48-4 35-17zm494-2c19-9 44-29 54-44l20-27v-88l-19-33c-10-18-31-42-46-53l-26-20-96-5-96-5V720h-80v490h255l34-18zm361-168c41-102 77-187 81-190 4-2 41 80 82 184l75 187 61 3 61 3V720h-70l-1 203v202l-10-15c-6-8-43-98-83-200l-74-185h-87l-75 192c-42 105-79 195-83 199l-7 7V720h-60v490h117l73-186zm-440-484v-40l-17 1-18 1 13 5 12 5v38h-21l13 15c18 20 18 20 18-25zm-394-26c-3-8-11-14-18-14h-13l15 10 14 9-17 19c-24 27-21 36 4 11l21-21-6-14zm464 52c0-3-4-8-10-11l-10-6v10c0 6 5 11 10 11 6 0 10-2 10-4zm92-31 4-35h-16v35c0 19 2 35 4 35s6-16 8-35zm212-4 1-29-7 5c-5 2-8 18-8 35v31l7-6c3-4 7-20 7-36zm-718 11 3-12-6 10c-8 17-23 11-23-9v-19l13-5 12-5-13-1c-16-1-26 24-18 45l6 16 12-4c6-2 13-10 14-16zm129 7c11-16 1-19-13-3l-13 14h10c5 0 13-5 16-11zm163-30-4-24-5 33-6 33 10-10 9-9-4-23zm267 11v-23l-12-4-13-5-6 16c-3 9-3 23 0 32l6 16 13-5 12-4v-23zm53-11-4-24-5 33-6 33 10-10 9-9-4-23zm187 11v-23l-12-4-13-5-6 16c-3 9-3 23 0 32l6 16 13-5 12-4v-23zm53-11-4-24-5 33-6 33 10-10 9-9-4-23zm-831-1-5-13v50l5-12c2-7 2-19 0-25zm240-5-5-18v60l5-12c2-7 2-21 0-30zm210 0-5-18v60l5-12c2-7 2-21 0-30zm-397-8v-10l-10 15c-5 8-10 20-10 25v10l10-15c5-8 10-19 10-25zm44 2 11-9-15 5-15 4-2 19-3 19 7-15c3-8 11-19 17-23zm306 20v-13h-20c-25 0-26 13-2 19 9 3 18 5 20 6 1 0 2-5 2-12zm-206-12 5-15h-9c-6 0-10 7-10 15s2 15 4 15 6-7 10-15zm450 0 5-15h-9c-6 0-10 7-10 15s2 15 4 15 6-7 10-15zm-1 1875c1-11 5-20 9-20 3 0 6 9 5 20s-5 20-9 20c-3 0-6-9-5-20zm-21-20v-25l5 13c2 6 2 18 0 25l-5 12v-25zm-36-6c-11-7-18-16-15-18 2-2 13 2 23 10 11 7 18 16 15 18-2 2-13-2-23-10zm57-39v-34l9 5 8 5-2 30c-3 41-15 36-15-6zm-44 23c0-2-2-11-4-20l-3-18h18v20c0 16-7 28-11 18zm-50-10c0-2-2-11-4-20l-3-18h18v20c0 16-7 28-11 18zm71-25c0-37 5-43 13-14l5 19-9 13-9 14v-32zm-50-4v-20l10 6 10 6 1-13c1-7 1-16 0-20 0-5 3-8 8-8h10l-2 20-1 19-14 6-13 5 6 10 6 10h-21v-21zm-47-9c1-11 5-20 9-20 3 0 6 9 5 20s-5 20-9 20c-3 0-6-9-5-20zm26-12c0-2-2-11-4-20l-3-18h18v20c0 16-7 28-11 18zm21-30v-21l7 7c11 10 12 36 2 36h-9v-22zm-48-22 1-34 19 11c10 7 18 15 18 19v7l-15-5-14-6 4 21 4 21h-18l1-34zm-472-66v-20h230v40h-230v-20zm0-50v-20h230v40h-230v-20zm0-50v-20h230v40h-230v-20zm0-50v-20h230v40h-230v-20zm180-46-12-14 12-14 11-15 15 6 14 5v36l-14 5-15 6-11-15zm30-14c0-5-5-10-11-10h-10l6 10c3 6 8 10 11 10 2 0 4-4 4-10zm-190 5c0-8 5-15 10-15 6 0 10 7 10 15s-4 15-10 15c-5 0-10-7-10-15zm35 6-5-10 8-5c10-6 22 3 22 16 0 11-17 10-25-1zm-71-291v-20h262v40h-262v-20zm58-37c37-2 100-2 140 0l73 3h-280l67-3zm-57-23-6-10h272l-6 10-6 10h-248l-6-10zm57-27c37-2 100-2 140 0l73 3h-280l67-3zm-57-23-6-10h272l-6 10-6 10h-248l-6-10zm57-27c37-2 100-2 140 0l73 3h-280l67-3zm98-478v-85h141l28 15c32 16 41 33 41 76v30l-25 24-24 25h-161v-85zm320-535v-20h20v40h-20v-20zm240 0v-20h20v40h-20v-20z"/></g><g fill="#6d6d6d" transform="matrix(.1 0 0 -.1 0 300)"><path d="M0 1500V0h3000v3000H0V1500zm1799 996c-2-2-77-56-167-120l-163-117-146 3-146 3 174 117 174 117h139c77 1 137-1 135-3zm41-338v-343l-175-145c-97-80-180-146-185-148l-10-4v728l178 126c97 70 180 127 185 128h7v-342zm-380-278v-370h-300v740h300v-370zm799-499 14-9-6-16-6-16H741l-6 10c-4 6-4 17-1 25l5 15h1506l14-9zm-1208-187c18-11 41-31 51-45l19-26 6-41 6-42h-73v48l-25 31-26 30-43 6-42 7-37-15-36-15-16-32-17-32 4-120 3-120 33-29 32-29h91l29 15c37 19 50 43 50 94v41H919l3 28 3 27 103 3 102 3v-89c0-49 3-110 6-136l7-46h-44l-11 31-10 30-22-20c-30-28-70-41-126-41-86 0-137 32-171 105l-19 40v198l12 40 12 41 32 31 31 31 34 12 34 11 62-3 62-4 32-18zm518-18 31-29 11-34 11-34-6-34-7-34-26-32-27-32-33-13-32-14h-161V709l-37 3-38 3-3 248-2 248 144-3 145-3 30-29zm331-148c40-101 76-186 80-191l6-7 75 187 75 188 62 3 62 3V710h-70v414l-8-9c-5-6-44-99-86-208l-78-198-40 3-41 3-81 205-81 205-3-208-2-208-33 3-32 3-3 248-2 247h128l72-182zm-850-458-15-10 19-15 19-14-6-16-6-15-18 1-18 1 18 5c21 6 21 12 1 34l-16 18 7 10c3 6 12 11 18 11h12l-15-10zm410-31v-40l-17 3-18 3-3 18-4 19 19 18c10 10 19 19 21 19 1 1 2-17 2-40zm70 21c0-5-4-10-10-10-5 0-10 5-10 10 0 6 5 10 10 10 6 0 10-4 10-10zm94-30c1-16-2-30-5-30-8 0-17 58-11 65 9 9 15-4 16-35zm210 1 1-29-7 5c-5 2-8 18-8 35v31l7-6c3-4 7-20 7-36zm-718 11 3-12-6 10c-8 17-23 11-23-9v-20l18-4 17-5-18-1-18-1-5 15c-4 8-3 22 0 31l6 16 12-4c6-2 13-10 14-16zm42 6c-9-7-18-22-21-33l-5-20-1 33-1 32h44l-16-12zm38-23-7-26-9 6c-6 3-10 14-10 23v17l10-15 10-15v24c0 13 3 22 6 18 4-3 3-18 0-32zm50 17 3-12-6 10c-8 17-23 11-23-9v-20l18-4 17-5-18-1-18-1-5 15c-4 8-3 22 0 31l6 16 12-4c6-2 13-10 14-16zm35 4c-5-6-11-20-14-31l-5-20-1 31-1 31h30l-9-11zm77-19 3-27h-41v31l17 6 17 6-20 9-19 8 20-3 20-2 3-28zm19-14-5-18v70l5-17c2-10 2-26 0-35zm31 6-4-24-5 33-6 33 10-10 9-9-4-23zm182 11v-30l-17 1-18 1 13 5 12 5v24c0 13 2 24 5 24s5-13 5-30zm85 0v-23l-12-4-13-5-6 16c-3 9-3 23 0 32l6 16 13-5 12-4v-23zm81-3 1-27-4 25c-2 14-9 25-14 25h-9l-1-27-1-28-8 30-7 30-6-15c-3-8-8-22-10-30l-5-15-1 26c-1 33 7 41 39 37l25-3 1-28zm44 18c0-8-4-15-10-15-5 0-10-5-10-11v-10l9 6 10 5 6-10 6-10h-41v14c0 8 5 18 11 22l11 7-13 8-14 9h35v-15zm115-15v-23l-12-4-13-5-6 16c-3 9-3 23 0 32l6 16 13-5 12-4v-23zm54-2-1-33-8 30-7 30-6-15c-3-8-8-22-10-30l-5-15-1 33-1 32h40l-1-32zm-412 0-5-13-1 19c-1 11 2 17 5 13 3-3 4-12 1-19zm300-10-5-13v50l5-12c2-7 2-19 0-25zm-317 4v-13l-11 7-11 7-9-14-9-14v41h40v-14zm249 1886c0-2-2-11-4-20l-3-18h17l-2 20c-1 17-5 26-8 18zm-6-68c1-21 10-18 13 5 1 8-2 15-6 15h-9l2-20zm-44 8c0-2-2-11-4-20l-3-18h17l-2 20c-1 17-5 26-8 18zm-76-48c1-21 10-18 13 5 1 8-2 15-6 15h-9l2-20zm72-30-6-10h10c6 0 11 5 11 10 0 6-2 10-4 10-3 0-8-4-11-10zm-72-20c1-21 10-18 13 5 1 8-2 15-6 15h-9l2-20zm-471-77 3-18 113-3 112-3v41h-231l3-17zm0-50 3-18 113-3 112-3v41h-231l3-17zm0-50 3-18 113-3 112-3v41h-231l3-17zm0-50 3-18 113-3 112-3v41h-231l3-17zm183-42-5-10 10-6 10-6v15c0 18-6 21-15 7zm-165-17v-15l10 6c6 3 10 10 10 16 0 5-4 9-10 9-5 0-10-7-10-16zm36 7-6-10 9-5 10-6 5 9 6 10-9 5-10 6-5-9zm150-16-5-15h9c6 0 10 7 10 15s-2 15-4 15-6-7-10-15zm-164-262c37-2 100-2 140 0l73 3h-280l67-3zm0-30c37-2 100-2 140 0l73 3h-280l67-3zm0-20c37-2 100-2 140 0l73 3h-280l67-3zm0-30c37-2 100-2 140 0l73 3h-280l67-3zm0-20c37-2 100-2 140 0l73 3h-280l67-3zm-52-23v-10h250v20h-250v-10zm52-27c37-2 100-2 140 0l73 3h-280l67-3zm98-479v-86l81 4 81 3 24 28 24 28v60l-25 24-24 25h-161v-86zm100-534v-20h20v40h-20v-20zm-100-10c0-5 5-10 10-10 6 0 10 5 10 10 0 6-4 10-10 10-5 0-10-4-10-10zm320 10v-20h20v40h-20v-20zm240 0v-20h20v40h-20v-20z"/></g><g fill="#3d3d3d" transform="matrix(.1 0 0 -.1 0 300)"><path d="M0 1500V0h3000v3000H0V1500zm1795 992c-6-5-81-59-167-120l-156-112h-307l180 120 180 120h279l-9-8zm45-335v-342l-162-135c-89-74-172-143-185-153l-23-18v739l177 126c97 69 180 126 185 126h8v-343zm-380-277v-370h-300v740h300v-370zm805-515v-20l-767-3-768-2v18c0 10 3 22 7 25l6 7 761-2 761-3v-20zm-1225-167 44-23 19-26 19-27 8-41 7-41h-75l-6 35-7 34-24 19c-14 11-40 23-59 26l-33 6-38-12-38-13-18-35-19-35V865l18-35 17-35 25-12c14-7 42-13 63-13h38l28 14 27 15 12 26c7 14 12 41 12 60v35H920v61l108-3 107-3 3-132 3-133h-48l-7 32-6 31-23-20c-12-11-32-26-44-32l-22-11H867l-42 25-42 24-17 36c-10 19-21 61-27 93l-9 57 6 65 6 65 19 41c24 51 46 72 96 90l38 13 50 1h51l44-22zm515-8 33-20 16-34c9-19 16-47 16-62v-28l-21-42-20-43-43-20-42-21h-164V710h-80v500h273l32-20zm353-174 75-189 76 192 76 191h125V709l-37 3-38 3-5 195-5 194-76-194-76-195h-87l-76 192c-41 105-78 195-82 199l-8 7V710h-70v501l66-3 66-3 76-189zm-843-446 6-10-15 6-16 6v-10c0-5 7-12 15-16l15-5v-41l-22 1-23 1 18 5c22 6 22 19 0 31l-16 10 6 16c7 18 23 21 32 6zm395-31v-40l-17 3-18 3-3 18-4 19 19 18c10 10 19 19 21 19 1 1 2-17 2-40zm78 1 10-40h-8c-5 0-11 6-14 13l-6 12-6-12c-3-7-9-13-14-13h-8l10 40c6 22 14 40 18 40s12-18 18-40zm86-10c1-16-2-30-5-30-8 0-17 58-11 65 9 9 15-4 16-35zm208 5-4-25h22v51l10-6c6-3 10-17 10-31v-24h-48l-4 30c-5 31-1 43 12 35l7-5-5-25zm-716 7 3-12-6 10c-8 17-23 11-23-9v-20l18-4 17-5-18-1-18-1-5 15c-4 8-3 22 0 31l6 16 12-4c6-2 13-10 14-16zm62-4 6-23 7 25 7 25 1-20c0-11-3-27-9-35l-9-14-11 28-11 29-8-9c-5-5-11-18-14-29l-5-20-1 33-1 32h42l6-22zm71 5-1-18-5 13c-7 18-21 15-19-5 0-10 8-21 16-25l15-7h-18l-18-1-5 15c-4 8-4 22 0 30l5 15h31l-1-17zm33 5c-5-7-12-22-15-33l-5-20-1 33-1 32h32l-10-12zm76-21 3-27h-41v14c0 8 5 18 11 22l11 7-13 9-14 9 20-3 20-3 3-28zm51 1-1-33-8 30-7 30-6-15c-3-8-8-22-10-30l-5-15-1 33-1 32h40l-1-32zm162 5 1-28 8 30 8 30 1-33 1-33-17 3-18 3-3 28-3 27h21l1-27zm104-4v-24l-17-3-18-3v24c0 27 9 39 24 34l11-4v-24zm82-4 2-30-5 15c-3 8-8 22-11 30l-6 15-7-30-8-30-1 30-1 29-9-9c-5-6-11-19-14-30l-5-20-1 33-1 33 33-3 32-3 2-30zm51 2 3-27h-41v14c0 8 5 18 11 22l11 7-13 9-14 9 20-3 20-3 3-28zm107 3v-25l-17-3-18-3v62l18-3 17-3v-25zm54-2-1-33-8 30-7 30-6-15c-3-8-8-22-10-30l-5-15-1 33-1 32h40l-1-32zm-769 1642v-21l107 3 108 3 3 18 3 17h-221v-20zm0-50v-21l107 3 108 3 3 18 3 17h-221v-20zm0-50v-21l107 3 108 3 3 18 3 17h-221v-20zm0-50v-21l107 3 108 3 3 18 3 17h-221v-20zm10-50c0-5 5-10 10-10 6 0 10 5 10 10 0 6-4 10-10 10-5 0-10-4-10-10zm40 0c0-5 5-10 11-10h10l-6 10c-3 6-8 10-11 10-2 0-4-4-4-10zm-7-277c37-2 96-2 130 0l62 3h-260l68-3zm0-30c37-2 96-2 130 0l62 3h-260l68-3zm0-20c37-2 96-2 130 0l62 3h-260l68-3zm0-30c37-2 96-2 130 0l62 3h-260l68-3zm0-20c37-2 96-2 130 0l62 3h-260l68-3zm0-30c37-2 96-2 130 0l62 3h-260l68-3zm0-20c37-2 96-2 130 0l62 3h-260l68-3zm87-479v-87l82 5 81 5 24 27 23 27v60l-25 24-24 25h-161v-86zm104-525-6-11 11-11 11-11v22c0 24-5 28-16 11zm216-9v-20h20v40h-20v-20zm240 0v-20h20v40h-20v-20z"/></g><g fill="#020202" transform="matrix(.1 0 0 -.1 0 300)"><path d="M0 1500V0h3000v3000H0V1500zm1789 983-14-18 21 18c11 9 26 17 32 17h12v-688l-173-145c-95-79-183-149-195-156l-22-12-147 3-148 3-3 368-2 368 12 13c7 7 92 65 188 129l175 117h277l-13-17zm479-1120 3-23H730v18c0 10 3 22 7 25l6 7 761-2 761-3 3-22zm-1241-154c15-5 43-24 61-42l32-31 11-39c6-22 8-45 5-53l-5-14h-69l-7 36-6 36-24 24-24 24H894l-23-16-23-17-14-33-14-33 1-88v-88l12-35 12-35 35-18 35-18 44 4 43 5 25 25 25 25 5 46 6 46H920v60h220V710h-48l-6 25-7 26-28-20c-15-11-48-25-74-32l-47-11-47 11c-26 7-60 22-76 33l-30 21-21 46-21 46v220l22 40c25 48 47 69 93 89l35 15 57 1h57l28-11zm521-13 33-17 20-32 20-32-4-51-3-51-24-33-23-32-33-14-33-14h-171V710h-80v497l8 7 7 8 125-4 125-4 33-18zm280 12c6-7 40-89 78-183 37-93 70-173 74-178l6-7 75 187 75 188h129l3-252 2-253h-90v198l-1 197-77-195-77-195-45-3-45-3-75 193-75 193-3-193-2-192h-80v497l7 6c3 4 30 7 58 7h53l10-12zm-358-669v-39h-50v51l15 5c8 4 15 13 15 21v14l10-6 10-6v-40zm400 41c0-5-4-10-10-10-5 0-10 5-10 10 0 6 5 10 10 10 6 0 10-4 10-10zm-800-10v-10h-34l20-14 19-15 3 15 3 14h39v-40h-25l15-10 15-10h-45l-1 13-1 12-5-12-5-13h-38v19l15-5 15-6v10c0 5-7 12-15 16l-15 5v41h40v-10zm469-22 9-33 1 23 1 22h20l1-27 2-28 4 25 4 26 19 12 20 12 1-7c0-5 1-22 2-39l2-31-44-2-45-1-8 12-8 13-9-15c-16-24-21-6-10 33 12 46 25 47 38 5zm333-3 8-10v25h40v-60h-40l-1 13-1 12-5-12-5-13h-46l-4 28c-2 16-2 34 0 40l3 11 22-12c12-7 25-16 29-22zm-691-2 1-18 5 18 4 17h59v-40h-25l15-10 15-10h-45l-1 28-1 27-7-24c-4-14-11-26-17-28l-10-3-11 27-11 28-1-27-1-28h-20v60h50l1-17zm101-13c-2-16-8-30-13-30h-9v60h27l-5-30zm78 0v-30h-19c-11 0-22 4-26 9l-5 9 15 15 15 15-13 5-12 5 23 1 22 1v-30zm49-2-1-33-8 30-8 30-1-27-1-28h-20v60h40l-1-32zm271 2v-30h-38l-6 15c-3 8-3 22 0 30l6 15h38v-30zm80 10v-21l14 13 14 13-12 8-11 8 20-3 20-3 3-27 3-27-35 1-36 1-1 21-1 21-8-25-8-25-3 30-2 30-4-27-4-28h-19v60h70v-20zm209-12-1-33-8 30-8 30-1-27-1-28h-20v60h40l-1-32zm-250 1905-14-18 18 14c9 7 17 15 17 17 0 8-8 3-21-13zm-140-100-14-18 18 14c9 7 17 15 17 17 0 8-8 3-21-13zm-70-50-14-18 18 14c9 7 17 15 17 17 0 8-8 3-21-13zm-40-30-14-18 18 14c9 7 17 15 17 17 0 8-8 3-21-13zm-269-78v-15h210v30h-210v-15zm0-50v-15h210v30h-210v-15zm0-50v-15h210v30h-210v-15zm0-50v-15h210v30h-210v-15zm43-332c37-2 96-2 130 0l62 3h-260l68-3zm0-50c37-2 96-2 130 0l62 3h-260l68-3zm0-50c37-2 96-2 130 0l62 3h-260l68-3zm0-50c37-2 96-2 130 0l62 3h-260l68-3zm87-473v-80h158l21 18 21 17 6 32 6 32-30 31-30 30h-152v-80zm112-540v-25l5 13c2 6 2 18 0 25l-5 12v-25zm400 0v-25l5 13c2 6 2 18 0 25l-5 12v-25zm48 0v-24l12 12 12 12-12 12-12 12v-24zm-240 0v-20h20v40h-20v-20z"/></g></g></svg>